<?xml version="1.0" encoding="utf-8"?>
<!-- Generator: Adobe Illustrator 24.3.0, SVG Export Plug-In . SVG Version: 6.00 Build 0)  -->
<svg version="1.1" id="Capa_1" xmlns="http://www.w3.org/2000/svg" xmlns:xlink="http://www.w3.org/1999/xlink" x="0px" y="0px"
	 viewBox="0 0 612 612" style="enable-background:new 0 0 612 612;" xml:space="preserve">
<style type="text/css">
	.st0{fill:#FFFFFF;}
</style>
<g>
	<g id="Rectangle_9_copy">
		<g>
			<path class="st0" d="M370.4,338.4c31.7-28.9,51.7-70.5,51.7-116.8c0-87.4-70.9-158.3-158.3-158.3s-158.3,70.9-158.3,158.3
				c0,46.3,20,87.8,51.7,116.8C64.6,358.8,0,405.1,0,459c0,72.8,118.1,131.9,263.8,131.9s263.8-59,263.8-131.9
				C527.6,405.1,463,358.8,370.4,338.4z M126.6,221.6c0-75.8,61.4-137.2,137.2-137.2S401,145.8,401,221.6
				c0,75.8-61.4,137.2-137.2,137.2S126.6,297.4,126.6,221.6z M263.8,569.8c-134,0-242.7-49.6-242.7-110.8
				c0-47.6,65.7-88.2,158-103.9c24.5,15.6,53.5,24.7,84.7,24.7c31.2,0,60.2-9.1,84.7-24.7c92.3,15.7,158,56.3,158,103.9
				C506.5,520.2,397.8,569.8,263.8,569.8z M538.1,95V21.1H517V95h-73.9v21.1H517v73.9h21.1v-73.9H612V95H538.1z"/>
		</g>
	</g>
</g>
</svg>
