<?xml version="1.0" encoding="utf-8"?>
<!-- Generator: Adobe Illustrator 24.3.0, SVG Export Plug-In . SVG Version: 6.00 Build 0)  -->
<svg version="1.1" id="Layer_4" xmlns="http://www.w3.org/2000/svg" xmlns:xlink="http://www.w3.org/1999/xlink" x="0px" y="0px"
	 viewBox="0 0 24 24" style="enable-background:new 0 0 24 24;" xml:space="preserve">
<style type="text/css">
	.st0{fill:#FFFFFF;}
</style>
<path class="st0" d="M17.3,7.4c0-0.1-0.1-0.3-0.1-0.4l-0.5-0.4c0,0,0,0-0.1-0.1l-3.4-3.4C13.1,3.1,13,3,12.9,3H6.7
	C5.4,3,4.3,4.1,4.3,5.5v13c0,1.4,1.1,2.5,2.5,2.5h1.5c0.3,0,0.5-0.2,0.5-0.5S8.6,20,8.3,20H6.7c-0.8,0-1.5-0.7-1.5-1.5v-13
	C5.3,4.7,5.9,4,6.7,4h5.7c0,0.1,0,0.1,0,0.2v2.1c0,0.8,0.7,1.5,1.5,1.5H16c0.1,0,0.2,0,0.2,0v4.9c0,0,0,0-0.1,0c-0.2,0-0.4,0-0.6,0
	c-2.3,0-4.1,1.9-4.1,4.1c0,0.3,0,0.6,0.1,0.8c0,0.1,0,0.2,0.1,0.2c0,0.2,0.1,0.4,0.2,0.5c0,0.1,0.1,0.2,0.1,0.3
	c0.1,0.2,0.2,0.3,0.3,0.5c0,0.1,0.1,0.1,0.1,0.2c0.2,0.2,0.3,0.4,0.5,0.6c0,0,0,0,0,0H10c-0.3,0-0.5,0.2-0.5,0.5S9.7,21,10,21h4.8
	c0.1,0,0.3,0,0.4,0c0.2,0,0.3,0,0.5,0c2.3,0,4.1-1.8,4.1-4.1c0-1.7-1-3.1-2.5-3.8L17.3,7.4L17.3,7.4z M13.9,6.9
	c-0.3,0-0.5-0.2-0.5-0.5V4.7l2.2,2.2C15.5,6.9,13.9,6.9,13.9,6.9z M18.7,16.9c0,1.7-1.4,3.1-3.1,3.1c-0.1,0-0.3,0-0.5,0l-0.1,0
	c-1.4-0.3-2.5-1.5-2.5-3c0-0.2,0-0.5,0.1-0.7c0-0.1,0-0.1,0-0.2c0-0.2,0.1-0.3,0.2-0.5c0,0,0-0.1,0.1-0.1c0.1-0.2,0.2-0.3,0.3-0.5
	c0,0,0-0.1,0.1-0.1c0.1-0.1,0.3-0.3,0.4-0.4c0,0,0,0,0.1-0.1c0.2-0.1,0.3-0.2,0.5-0.3c0,0,0,0,0.1,0c0.2-0.1,0.4-0.2,0.6-0.2
	c0,0,0,0,0.1,0c0.2,0,0.4-0.1,0.7-0.1c0.3,0,0.5,0,0.8,0.1l0.2,0.1C17.9,14.3,18.7,15.5,18.7,16.9z"/>
<path class="st0" d="M14.5,16.4c-0.3,0-0.5,0.2-0.5,0.5s0.2,0.5,0.5,0.5h2.3c0.3,0,0.5-0.2,0.5-0.5s-0.2-0.5-0.5-0.5H14.5z"/>
</svg>
