<?xml version="1.0" encoding="utf-8"?>
<!-- Generator: Adobe Illustrator 24.3.0, SVG Export Plug-In . SVG Version: 6.00 Build 0)  -->
<svg version="1.1" id="Слой_1" xmlns="http://www.w3.org/2000/svg" xmlns:xlink="http://www.w3.org/1999/xlink" x="0px" y="0px"
	 viewBox="0 0 20 20" style="enable-background:new 0 0 20 20;" xml:space="preserve">
<style type="text/css">
	.st0{fill:#FFFFFF;}
</style>
<path class="st0" d="M6,3C4.3,3,3,4.3,3,6v8c0,1.7,1.3,3,3,3h1v-1H6c-1.1,0-2-0.9-2-2V7h13V6c0-1.7-1.3-3-3-3H6z M4,6
	c0-1.1,0.9-2,2-2h8c1.1,0,2,0.9,2,2H4z M14.8,8c-1,0-1.8,0.8-1.8,1.8V13H9.8c-1,0-1.8,0.8-1.8,1.8v2.5c0,1,0.8,1.8,1.8,1.8h6.8
	c1.4,0,2.5-1.1,2.5-2.5V9.8c0-1-0.8-1.8-1.8-1.8H14.8z M18,16.5c0,0.8-0.7,1.5-1.5,1.5H14v-4h4V16.5z M14,9.8C14,9.3,14.3,9,14.8,9
	h2.5C17.7,9,18,9.3,18,9.8V13h-4V9.8z M9.8,14H13v4H9.8C9.3,18,9,17.7,9,17.2v-2.5C9,14.3,9.3,14,9.8,14z"/>
</svg>
