<svg id="logo2" xmlns="http://www.w3.org/2000/svg" viewBox="0 0 488.37 488.36"><defs><style>.cls-1{fill:#18bcff;}</style></defs><path class="cls-1" d="M458.88,164.76,335.24,41.12a120.56,120.56,0,0,0-170.48,0L41.12,164.76a120.56,120.56,0,0,0,0,170.48L164.76,458.88a120.59,120.59,0,0,0,152.62,14.73L193,349.23l-53-53a65.35,65.35,0,0,1,0-92.4L203.8,140a65.35,65.35,0,0,1,92.4,0L360,203.8a65.35,65.35,0,0,1,0,92.4L296.2,360c-1,1-2.1,2-3.18,3L362.08,432l96.8-96.8A120.56,120.56,0,0,0,458.88,164.76Z" transform="translate(-5.82 -5.82)"/><rect class="cls-1" x="221.46" y="307.77" width="270.41" height="98.46" rx="37.22" transform="translate(351.08 -153.45) rotate(45)"/></svg>