<?xml version="1.0" encoding="utf-8"?>
<!-- Generator: Adobe Illustrator 24.3.0, SVG Export Plug-In . SVG Version: 6.00 Build 0)  -->
<svg version="1.1" id="Capa_1" xmlns="http://www.w3.org/2000/svg" xmlns:xlink="http://www.w3.org/1999/xlink" x="0px" y="0px"
	 viewBox="0 0 162.4 162.4" style="enable-background:new 0 0 162.4 162.4;" xml:space="preserve">
<style type="text/css">
	.st0{fill:#787FB5;}
</style>
<g>
	<path class="st0" d="M81.2,162.4c-9.2,0-16.7-7-16.7-15.6c0-4.5-6.8-11.3-8.9-12.4c-1.1-0.3-5.3,1.2-9,5
		c-6.1,6.1-16.3,5.7-22.8-0.8c-6.5-6.5-6.9-16.8-0.8-22.8c3.2-3.2,3.3-12.8,2.5-15c-0.4-0.8-4.2-3-10-3C7,97.9,0,90.4,0,81.2
		s7-16.7,15.6-16.7c4.5,0,11.3-6.8,12.4-8.9c0.3-1-1.2-5.2-5-9c-3-3-4.5-7-4.3-11.4c0.2-4.3,2-8.3,5.1-11.4
		c6.5-6.5,16.8-6.9,22.8-0.8c3.2,3.2,12.7,3.2,14.9,2.5c0.8-0.4,3-4.2,3-10C64.5,7,72,0,81.2,0s16.7,7,16.7,15.6
		c0,4.5,6.8,11.3,8.9,12.4c1,0.2,5.2-1.2,9-5c6.1-6.1,16.3-5.7,22.8,0.8c3.1,3.1,4.9,7.2,5.1,11.4c0.2,4.4-1.3,8.4-4.3,11.4
		c-3.2,3.2-3.3,12.7-2.5,14.9c0.4,0.8,4.2,3,10,3c8.6,0,15.6,7.5,15.6,16.7s-7,16.7-15.6,16.7c-4.5,0-11.3,6.8-12.4,8.9
		c-0.3,1,1.2,5.2,5,9c3,3,4.5,7,4.3,11.4c-0.2,4.3-2,8.3-5.1,11.4c-6.5,6.5-16.8,6.9-22.8,0.8c-3.2-3.2-12.7-3.3-14.9-2.5
		c-0.8,0.4-3,4.2-3,10C97.9,155.5,90.4,162.4,81.2,162.4z M55.5,126.9c1.3,0,2.6,0.3,3.7,0.8c3.9,2,13,10.9,13,19.2
		c0,4.4,4.1,8,9.1,8s9.1-3.6,9.1-8c0-7.2,2.8-15.4,8.2-17.2c4.1-1.4,16.8-1.5,22.7,4.4c3.1,3.1,8.5,2.7,12.1-0.8
		c1.8-1.8,2.8-4,2.9-6.4c0.1-2.2-0.6-4.2-2.1-5.7c-5.1-5.1-8.9-12.9-6.4-17.9c2-3.9,10.9-13,19.2-13c4.4,0,8-4.1,8-9.1
		s-3.6-9.1-8-9.1c-7.2,0-15.4-2.8-17.2-8.2c-1.4-4.1-1.5-16.8,4.4-22.7c1.4-1.4,2.2-3.5,2.1-5.7c-0.1-2.4-1.1-4.6-2.9-6.4
		c-3.6-3.5-9-3.9-12.1-0.8c-5.1,5.1-12.9,9-17.9,6.4c-3.9-2-13-10.9-13-19.2c0-4.4-4.1-8-9.1-8s-9.1,3.6-9.1,8
		c0,7.2-2.8,15.4-8.2,17.2c-4.1,1.4-16.8,1.5-22.7-4.4c-3.1-3.1-8.5-2.7-12.1,0.8c-1.8,1.8-2.8,4-2.9,6.4c-0.1,2.2,0.6,4.2,2.1,5.7
		c5.1,5.1,8.9,12.9,6.4,17.9c-1.6,3.1-10.4,13-19.2,13c-4.4,0-8,4.1-8,9.1s3.6,9.1,8,9.1c7.2,0,15.4,2.8,17.2,8.2
		c1.3,4.1,1.5,16.8-4.4,22.7c-3.1,3.1-2.7,8.5,0.8,12.1c3.6,3.5,9,3.9,12.1,0.8C45.2,130.1,50.8,126.9,55.5,126.9z"/>
	<path class="st0" d="M81.2,116.8c-19.7,0-35.6-16-35.6-35.6s16-35.6,35.6-35.6c19.6,0,35.6,16,35.6,35.6S100.9,116.8,81.2,116.8z
		 M81.2,53.2c-15.5,0-28,12.6-28,28s12.6,28,28,28c15.5,0,28-12.6,28-28S96.7,53.2,81.2,53.2z"/>
</g>
</svg>
