<?xml version="1.0" encoding="utf-8"?>
<!-- Generator: Adobe Illustrator 24.3.0, SVG Export Plug-In . SVG Version: 6.00 Build 0)  -->
<svg version="1.1" id="Слой_1" xmlns="http://www.w3.org/2000/svg" xmlns:xlink="http://www.w3.org/1999/xlink" x="0px" y="0px"
	 viewBox="0 0 24 24" style="enable-background:new 0 0 24 24;" xml:space="preserve">
<style type="text/css">
	.st0{fill:#787FB5;}
</style>
<path class="st0" d="M14.3,11l-3.1-3.1c-0.2-0.2-0.2-0.5,0-0.7s0.5-0.2,0.7,0l4,4c0.2,0.2,0.2,0.5,0,0.7l-4,4
	c-0.2,0.2-0.5,0.2-0.7,0s-0.2-0.5,0-0.7l3.1-3.1H3.5C3.2,12,3,11.8,3,11.5S3.2,11,3.5,11H14.3z"/>
<path class="st0" d="M10.5,4C10.2,4,10,3.8,10,3.5S10.2,3,10.5,3h8C19.9,3,21,4.1,21,5.5v13c0,1.4-1.1,2.5-2.5,2.5h-8
	c-0.3,0-0.5-0.2-0.5-0.5s0.2-0.5,0.5-0.5h8c0.8,0,1.5-0.7,1.5-1.5v-13C20,4.7,19.3,4,18.5,4H10.5z"/>
</svg>
